<svg xmlns="http://www.w3.org/2000/svg" xmlns:xlink="http://www.w3.org/1999/xlink"
  width="390px" height="117px" viewBox="-10 -10 300 90" version="1.1">
<![CDATA[
clock  _~_~_~_~_~_~_~_~_~_~
w_data   =?==XD0=X==?=X===D1==X=?===
w_valid  ___[~~]___~~~~~~~_____
w_ready  ~~~~~________[~~]_____
@grid on
]]>
<g>
<path d="M197,-5V75H221V-5Z" stroke="none" fill="#ff8" />
<path d="M77,-5V75H101V-5Z" stroke="none" fill="#ff8" />
<path d="M269,-5V75" stroke-width="0.3" stroke="#ccc" />
<path d="M257,-5V75" stroke-width="0.3" stroke="#ccc" />
<path d="M245,-5V75" stroke-width="0.3" stroke="#ccc" />
<path d="M233,-5V75" stroke-width="0.3" stroke="#ccc" />
<path d="M221,-5V75" stroke-width="0.3" stroke="#ccc" />
<path d="M209,-5V75" stroke-width="0.3" stroke="#ccc" />
<path d="M197,-5V75" stroke-width="0.3" stroke="#ccc" />
<path d="M185,-5V75" stroke-width="0.3" stroke="#ccc" />
<path d="M173,-5V75" stroke-width="0.3" stroke="#ccc" />
<path d="M161,-5V75" stroke-width="0.3" stroke="#ccc" />
<path d="M149,-5V75" stroke-width="0.3" stroke="#ccc" />
<path d="M137,-5V75" stroke-width="0.3" stroke="#ccc" />
<path d="M125,-5V75" stroke-width="0.3" stroke="#ccc" />
<path d="M113,-5V75" stroke-width="0.3" stroke="#ccc" />
<path d="M101,-5V75" stroke-width="0.3" stroke="#ccc" />
<path d="M89,-5V75" stroke-width="0.3" stroke="#ccc" />
<path d="M77,-5V75" stroke-width="0.3" stroke="#ccc" />
<path d="M65,-5V75" stroke-width="0.3" stroke="#ccc" />
<path d="M53,-5V75" stroke-width="0.3" stroke="#ccc" />
<path d="M41,-5V75" stroke-width="0.3" stroke="#ccc" />
<text x="35" y="8.5" text-anchor="end" font-size="10" fill="black" font-family="Helvetica">clock</text>
<path stroke-linecap="round" stroke-width="0.6" stroke="black" fill="none" d="M42,10H52M52,10L54,0M54,0H64M64,0L66,10M66,10H76M76,10L78,0M78,0H88M88,0L90,10M90,10H100M100,10L102,0M102,0H112M112,0L114,10M114,10H124M124,10L126,0M126,0H136M136,0L138,10M138,10H148M148,10L150,0M150,0H160M160,0L162,10M162,10H172M172,10L174,0M174,0H184M184,0L186,10M186,10H196M196,10L198,0M198,0H208M208,0L210,10M210,10H220M220,10L222,0M222,0H232M232,0L234,10M234,10H244M244,10L246,0M246,0H256M256,0L258,10M258,10H268M268,10L270,0M270,0H280" />

<text x="35" y="28.5" text-anchor="end" font-size="10" fill="black" font-family="Helvetica">w_data</text>

<path stroke="none" d="M42,20H76L77,25L76,30H42Z" fill="#ccc"/><text x="59" y="28.5" text-anchor="middle" font-size="10" fill="black" font-family="Helvetica">?</text>
<text x="89" y="28.5" text-anchor="middle" font-size="10" fill="black" font-family="Helvetica">D0</text>

<path stroke="none" d="M102,20H148L149,25L148,30H102L101,25Z" fill="#ccc"/><text x="125" y="28.5" text-anchor="middle" font-size="10" fill="black" font-family="Helvetica">?</text>
<text x="185" y="28.5" text-anchor="middle" font-size="10" fill="black" font-family="Helvetica">D1</text>

<path stroke="none" d="M222,20H280L280,30H222L221,25Z" fill="#ccc"/><text x="251" y="28.5" text-anchor="middle" font-size="10" fill="black" font-family="Helvetica">?</text>
<path stroke-linecap="round" stroke-width="0.6" stroke="black" fill="none" d="M42,30H52M42,20H52M52,20H54M52,30H54M54,30H64M54,20H64M64,20H66M64,30H66M66,30H76M66,20H76M76,20L78,30M76,30L78,20M78,30H88M78,20H88M88,20H90M88,30H90M90,30H100M90,20H100M100,20L102,30M100,30L102,20M102,30H112M102,20H112M112,20H114M112,30H114M114,30H124M114,20H124M124,20H126M124,30H126M126,30H136M126,20H136M136,20H138M136,30H138M138,30H148M138,20H148M148,20L150,30M148,30L150,20M150,30H160M150,20H160M160,20H162M160,30H162M162,30H172M162,20H172M172,20H174M172,30H174M174,30H184M174,20H184M184,20H186M184,30H186M186,30H196M186,20H196M196,20H198M196,30H198M198,30H208M198,20H208M208,20H210M208,30H210M210,30H220M210,20H220M220,20L222,30M220,30L222,20M222,30H232M222,20H232M232,20H234M232,30H234M234,30H244M234,20H244M244,20H246M244,30H246M246,30H256M246,20H256M256,20H258M256,30H258M258,30H268M258,20H268M268,20H270M268,30H270M270,30H280M270,20H280" />

<text x="35" y="48.5" text-anchor="end" font-size="10" fill="black" font-family="Helvetica">w_valid</text>
<path stroke-linecap="round" stroke-width="0.6" stroke="black" fill="none" d="M42,50H52M52,50H54M54,50H64M64,50H66M66,50H76M76,50L78,40M78,40H88M88,40H90M90,40H100M100,40L102,50M102,50H112M112,50H114M114,50H124M124,50H126M126,50H136M136,50L138,40M138,40H148M148,40H150M150,40H160M160,40H162M162,40H172M172,40H174M174,40H184M184,40H186M186,40H196M196,40H198M198,40H208M208,40H210M210,40H220M220,40L222,50M222,50H232M232,50H234M234,50H244M244,50H246M246,50H256M256,50H258M258,50H268M268,50H270M270,50H280" />

<text x="35" y="68.5" text-anchor="end" font-size="10" fill="black" font-family="Helvetica">w_ready</text>
<path stroke-linecap="round" stroke-width="0.6" stroke="black" fill="none" d="M42,60H52M52,60H54M54,60H64M64,60H66M66,60H76M76,60H78M78,60H88M88,60H90M90,60H100M100,60L102,70M102,70H112M112,70H114M114,70H124M124,70H126M126,70H136M136,70H138M138,70H148M148,70H150M150,70H160M160,70H162M162,70H172M172,70H174M174,70H184M184,70H186M186,70H196M196,70L198,60M198,60H208M208,60H210M210,60H220M220,60L222,70M222,70H232M232,70H234M234,70H244M244,70H246M246,70H256M256,70H258M258,70H268M268,70H270M270,70H280" />

</g>
</svg>
